<svg xmlns="http://www.w3.org/2000/svg" version="1.1" xmlns:xlink="http://www.w3.org/1999/xlink" width="200" height="200"><svg xmlns="http://www.w3.org/2000/svg" version="1.1" xmlns:xlink="http://www.w3.org/1999/xlink" viewBox="0 0 200 200"><rect width="200" height="200" fill="url('#gradient')"></rect><defs><linearGradient id="SvgjsLinearGradient1001" gradientTransform="rotate(360 0.5 0.5)"><stop offset="0%" stop-color="#000000"></stop><stop offset="100%" stop-color="#000000"></stop></linearGradient></defs><g><g fill="#ffffff" transform="matrix(4.388571428571429,0,0,4.388571428571429,16.133073947259348,131.18517344883512)" stroke="#ffffff" stroke-width="0"><path d="M9.98 0L9.15-2.66L4.45-2.66L3.63 0L-0.03 0L5.19-14.22L8.41-14.22L13.66 0L9.98 0ZM6.80-10.23L5.27-5.30L8.33-5.30L6.80-10.23ZM22.56 0L19.53-5.29L18.13-3.75L18.13 0L14.70 0L14.70-14.22L18.13-14.22L18.13-7.95L19.32-9.76L22.38-14.22L26.62-14.22L21.82-7.93L26.62 0L22.56 0ZM34.82-3.78L34.82-3.78Q34.82-4.53 34.29-4.95Q33.76-5.37 32.42-5.82Q31.08-6.27 30.23-6.69L30.23-6.69Q27.47-8.05 27.47-10.42L27.47-10.42Q27.47-11.60 28.16-12.50Q28.85-13.41 30.11-13.91Q31.37-14.41 32.94-14.41L32.94-14.41Q34.47-14.41 35.69-13.87Q36.90-13.32 37.58-12.31Q38.25-11.30 38.25-10L38.25-10L34.83-10Q34.83-10.87 34.30-11.35Q33.77-11.83 32.86-11.83L32.86-11.83Q31.94-11.83 31.41-11.42Q30.88-11.02 30.88-10.39L30.88-10.39Q30.88-9.84 31.46-9.40Q32.05-8.96 33.53-8.48Q35-8.01 35.95-7.46L35.95-7.46Q38.25-6.13 38.25-3.80L38.25-3.80Q38.25-1.93 36.85-0.87Q35.44 0.20 32.99 0.20L32.99 0.20Q31.26 0.20 29.86-0.42Q28.46-1.04 27.75-2.12Q27.04-3.20 27.04-4.61L27.04-4.61L30.48-4.61Q30.48-3.47 31.07-2.92Q31.66-2.38 32.99-2.38L32.99-2.38Q33.84-2.38 34.33-2.75Q34.82-3.12 34.82-3.78Z"></path></g></g></svg><style>@media (prefers-color-scheme: light) { :root { filter: none; } }
@media (prefers-color-scheme: dark) { :root { filter: none; } }
</style></svg>